<svg xmlns="http://www.w3.org/2000/svg" xmlns:xlink="http://www.w3.org/1999/xlink" version="1.1" x="0px" y="0px" viewBox="0 0 512 640" style="enable-background:new 0 0 512 512;" xml:space="preserve"><path d="M343,114V57.4c0-7.7-6.3-14.4-14-14.4H176.7C169,43,163,49.6,163,57.4V114H72v28h29.1l12,294.4c0.7,18.3,15.7,32.6,34,32.6  h211.7c18.3,0,33.2-14.3,34-32.6l12-294.4H440v-28H343z M191,71h124v43H191V71z M364.7,435.2c-0.1,3.2-2.8,5.8-6,5.8H147  c-3.2,0-5.9-2.5-6-5.8L129.1,142h247.5L364.7,435.2z"/><text x="0" y="527" fill="#000000" font-size="5px" font-weight="bold" font-family="'Helvetica Neue', Helvetica, Arial-Unicode, Arial, Sans-serif">Created by Adiyogi</text><text x="0" y="532" fill="#000000" font-size="5px" font-weight="bold" font-family="'Helvetica Neue', Helvetica, Arial-Unicode, Arial, Sans-serif">from the Noun Project</text></svg>