<svg xmlns="http://www.w3.org/2000/svg" xmlns:xlink="http://www.w3.org/1999/xlink" version="1.1" x="0px" y="0px" viewBox="0 0 512 640" style="enable-background:new 0 0 512 512;" xml:space="preserve"><g><path d="M174.9,99H86.5C57.9,99,35,122.8,35,151.5v270c0,28.7,22.9,52.5,51.5,52.5h278c28.7,0,51.5-23.8,51.5-52.5   v-85.5c0-6.6-5.4-12-12-12s-12,5.4-12,12v85.5c0,15.4-12.1,28.5-27.5,28.5h-278C71.1,450,59,437,59,421.5v-270   c0-15.4,12.1-28.5,27.5-28.5h88.4c6.6,0,12-5.4,12-12S181.6,99,174.9,99z"/><path d="M177.8,332.7c2.3,2.3,5.4,3.6,8.5,3.6c1.1,0,2.1-0.1,3.2-0.4L266,315c6.9-1.9,13.2-5.5,18.3-10.5   l176.9-172.8c10.5-10.3,16.3-24.1,16.3-38.8c0-14.7-5.8-28.5-16.3-38.8c-10.2-10-23.7-15.5-38.1-15.5s-27.8,5.5-38,15.5l-178,173.9   c-5.2,5.1-9,11.5-11,18.5L174.8,321C173.6,325.2,174.8,329.6,177.8,332.7z M404.2,153.8l-43.4-42.5L381,91.6l43.4,42.5L404.2,153.8   z M423.1,62.5c7.7,0,15.4,2.9,21.3,8.6c5.9,5.8,9.1,13.5,9.1,21.7s-3.2,15.9-9.1,21.7l-2.9,2.8l-43.4-42.5l3.7-3.6   C407.7,65.4,415.4,62.5,423.1,62.5z M219.1,253c0.9-3,2.5-5.8,4.7-8l119.8-117l43.4,42.5L267.5,287.3c-2.2,2.1-4.9,3.7-7.8,4.5   l-55.9,15.3L219.1,253z"/></g><text x="0" y="527" fill="#000000" font-size="5px" font-weight="bold" font-family="'Helvetica Neue', Helvetica, Arial-Unicode, Arial, Sans-serif">Created by Karan</text><text x="0" y="532" fill="#000000" font-size="5px" font-weight="bold" font-family="'Helvetica Neue', Helvetica, Arial-Unicode, Arial, Sans-serif">from the Noun Project</text></svg>