<svg xmlns="http://www.w3.org/2000/svg" xmlns:xlink="http://www.w3.org/1999/xlink" version="1.1" x="0px" y="0px" viewBox="0 0 60 75" style="enable-background:new 0 0 60 60;" xml:space="preserve"><path d="M32.3,32.4h14.3c1.3,0,2.3-1.1,2.3-2.3s-1.1-2.4-2.3-2.4H32.3V13.4c0-1.3-1.1-2.4-2.4-2.4s-2.4,1.1-2.4,2.4l0,0v14.3H13.4  c-1.3,0-2.4,1.1-2.4,2.3s1.1,2.4,2.3,2.4c0,0,0,0,0,0h14.3v14.3c0,1.3,1.1,2.4,2.3,2.4c1.3,0,2.4-1.1,2.4-2.3c0,0,0,0,0,0V32.4z"/><text x="0" y="75" fill="#000000" font-size="5px" font-weight="bold" font-family="'Helvetica Neue', Helvetica, Arial-Unicode, Arial, Sans-serif">Created by Jack Magma</text><text x="0" y="80" fill="#000000" font-size="5px" font-weight="bold" font-family="'Helvetica Neue', Helvetica, Arial-Unicode, Arial, Sans-serif">from the Noun Project</text></svg>